<svg width="52" height="52" viewBox="0 0 52 52" fill="none" xmlns="http://www.w3.org/2000/svg">
  <circle cx="26" cy="26" r="26" fill="#dc2626"/>
  <circle cx="26" cy="26" r="22" fill="#0f172a"/>
  <circle cx="26" cy="26" r="19.5" fill="none" stroke="#ef4444" stroke-width="0.75" opacity="0.45"/>
  <path d="M8 33 L8 27 L11 27 L15 20 L30 20 L35 24 L42 24 L44 26 L44 33 Z" fill="white"/>
  <path d="M12.5 27 L16 21 L29 21 L33.5 25 L12.5 25 Z" fill="#dc2626"/>
  <line x1="22" y1="20.5" x2="22" y2="33" stroke="#e2e8f0" stroke-width="0.6" opacity="0.25"/>
  <circle cx="16" cy="34" r="5.5" fill="#334155"/>
  <circle cx="16" cy="34" r="3.2" fill="none" stroke="white" stroke-width="1" opacity="0.75"/>
  <circle cx="16" cy="34" r="1.1" fill="white" opacity="0.8"/>
  <circle cx="37" cy="34" r="5.5" fill="#334155"/>
  <circle cx="37" cy="34" r="3.2" fill="none" stroke="white" stroke-width="1" opacity="0.75"/>
  <circle cx="37" cy="34" r="1.1" fill="white" opacity="0.8"/>
  <text x="26" y="47" text-anchor="middle" font-size="4.2" fill="white" opacity="0.5"
    font-family="system-ui, sans-serif" letter-spacing="1.8" font-weight="600">EST. 1989</text>
</svg>
